<svg width="1198" height="1170" viewBox="0 0 1198 1170" fill="none" xmlns="http://www.w3.org/2000/svg">
<path opacity="0.2" d="M-2.65849 417.416C-111.466 577.47 122.395 687.962 204.019 565.085C370.9 313.859 174.063 279.773 346.379 116.76C464.901 4.63655 461.897 -94.1931 545.855 171.67C615.018 390.684 295.256 620.824 265.287 663.079C138.177 842.301 456.941 1024.06 682.482 713.341C908.022 402.623 960.502 332.809 1058.93 539.957C1157.36 747.104 698.219 855.776 650.542 996.646C596.252 1157.06 963.456 913.863 1051.39 853.868C1063.81 845.401 1077.68 839.647 1092.65 838.366C1149.63 833.49 1282.71 835.188 1112.06 987.002C1019.25 1069.57 881.302 1139.82 933.777 1168" stroke="#4A4A4A" stroke-width="3" stroke-linecap="round" stroke-dasharray="10 10"/>
</svg>
